<svg width="240" height="240" viewBox="0 0 240 240" fill="none" xmlns="http://www.w3.org/2000/svg">
<path fill-rule="evenodd" clip-rule="evenodd" d="M115 10C138.846 10 158.979 18.2935 175.388 34.8932C191.797 51.494 199.999 72.8244 200 98.8594C199.999 115.819 193.039 135.241 179.11 157.096C167.44 175.405 150.545 195.426 128.436 217.169C120.969 224.513 109.031 224.513 101.564 217.169C79.455 195.426 62.5597 175.405 50.8903 157.096C36.9608 135.241 30.0008 115.819 30 98.8594C30.0012 72.8243 38.2033 51.494 54.6118 34.8932C71.0209 18.2935 91.1544 10 115 10Z" fill="#FB0060" stroke="#FAFAFA" stroke-width="10"/>
<path d="M78.3333 77.4992V68.3325H151.667V77.4992H78.3333ZM78.3333 141.666V114.166H73.75V104.999L78.3333 82.0825H151.667L156.25 104.999V114.166H151.667V141.666H142.5V114.166H124.167V141.666H78.3333Z" fill="#FAFAFA"/>
</svg>
