<svg width="240" height="240" viewBox="0 0 240 240" fill="none" xmlns="http://www.w3.org/2000/svg">
<path fill-rule="evenodd" clip-rule="evenodd" d="M115 10C138.846 10 158.979 18.2935 175.388 34.8932C191.797 51.494 199.999 72.8244 200 98.8594C199.999 115.819 193.039 135.241 179.11 157.096C167.44 175.405 150.545 195.426 128.436 217.169C120.969 224.513 109.031 224.513 101.564 217.169C79.455 195.426 62.5597 175.405 50.8903 157.096C36.9608 135.241 30.0008 115.819 30 98.8594C30.0012 72.8243 38.2033 51.494 54.6118 34.8932C71.0209 18.2935 91.1544 10 115 10Z" fill="#FB0060" stroke="#FAFAFA" stroke-width="10"/>
<path d="M102.17 117.915L115.003 108.29L127.607 117.915L122.795 102.332L135.628 92.2484H120.045L115.003 76.665L109.962 92.2484H94.3783L106.982 102.332L102.17 117.915ZM78.3366 136.248C75.8158 136.248 73.6578 135.351 71.8626 133.556C70.0675 131.761 69.1699 129.603 69.1699 127.082V111.613C69.1699 110.773 69.4373 110.047 69.972 109.436C70.5067 108.825 71.1942 108.443 72.0345 108.29C73.8678 107.679 75.3765 106.571 76.5605 104.967C77.7446 103.363 78.3366 101.568 78.3366 99.5817C78.3366 97.5956 77.7446 95.8005 76.5605 94.1963C75.3765 92.5921 73.8678 91.4845 72.0345 90.8734C71.1942 90.7206 70.5067 90.3386 69.972 89.7275C69.4373 89.1164 69.1699 88.3907 69.1699 87.5505V72.0817C69.1699 69.5609 70.0675 67.4029 71.8626 65.6077C73.6578 63.8126 75.8158 62.915 78.3366 62.915H151.67C154.191 62.915 156.349 63.8126 158.144 65.6077C159.939 67.4029 160.837 69.5609 160.837 72.0817V87.5505C160.837 88.3907 160.569 89.1164 160.034 89.7275C159.5 90.3386 158.812 90.7206 157.972 90.8734C156.139 91.4845 154.63 92.5921 153.446 94.1963C152.262 95.8005 151.67 97.5956 151.67 99.5817C151.67 101.568 152.262 103.363 153.446 104.967C154.63 106.571 156.139 107.679 157.972 108.29C158.812 108.443 159.5 108.825 160.034 109.436C160.569 110.047 160.837 110.773 160.837 111.613V127.082C160.837 129.603 159.939 131.761 158.144 133.556C156.349 135.351 154.191 136.248 151.67 136.248H78.3366ZM78.3366 127.082H151.67V115.394C148.844 113.714 146.609 111.479 144.967 108.691C143.324 105.903 142.503 102.866 142.503 99.5817C142.503 96.297 143.324 93.2605 144.967 90.4723C146.609 87.6841 148.844 85.4498 151.67 83.7692V72.0817H78.3366V83.7692C81.163 85.4498 83.3974 87.6841 85.0397 90.4723C86.6821 93.2605 87.5033 96.297 87.5033 99.5817C87.5033 102.866 86.6821 105.903 85.0397 108.691C83.3974 111.479 81.163 113.714 78.3366 115.394V127.082Z" fill="#FAFAFA"/>
</svg>
