<svg width="240" height="240" viewBox="0 0 240 240" fill="none" xmlns="http://www.w3.org/2000/svg">
<path fill-rule="evenodd" clip-rule="evenodd" d="M115 10C138.846 10 158.979 18.2935 175.388 34.8932C191.797 51.494 199.999 72.8244 200 98.8594C199.999 115.819 193.039 135.241 179.11 157.096C167.44 175.405 150.545 195.426 128.436 217.169C120.969 224.513 109.031 224.513 101.564 217.169C79.455 195.426 62.5597 175.405 50.8903 157.096C36.9608 135.241 30.0008 115.819 30 98.8594C30.0012 72.8243 38.2033 51.494 54.6118 34.8932C71.0209 18.2935 91.1544 10 115 10Z" fill="#FB0060" stroke="#FAFAFA" stroke-width="10"/>
<g clip-path="url(#clip0_2099_3543)">
<path d="M92.5 150.832C89.9792 150.832 87.8212 149.934 86.026 148.139C84.2309 146.344 83.3333 144.186 83.3333 141.665C83.3333 139.144 84.2309 136.986 86.026 135.191C87.8212 133.396 89.9792 132.498 92.5 132.498C95.0208 132.498 97.1788 133.396 98.974 135.191C100.769 136.986 101.667 139.144 101.667 141.665C101.667 144.186 100.769 146.344 98.974 148.139C97.1788 149.934 95.0208 150.832 92.5 150.832ZM138.333 150.832C135.812 150.832 133.655 149.934 131.859 148.139C130.064 146.344 129.167 144.186 129.167 141.665C129.167 139.144 130.064 136.986 131.859 135.191C133.655 133.396 135.812 132.498 138.333 132.498C140.854 132.498 143.012 133.396 144.807 135.191C146.602 136.986 147.5 139.144 147.5 141.665C147.5 144.186 146.602 146.344 144.807 148.139C143.012 149.934 140.854 150.832 138.333 150.832ZM84.25 68.3317H151.854C153.611 68.3317 154.948 69.1147 155.865 70.6807C156.781 72.2466 156.819 73.8317 155.979 75.4359L139.708 104.769C138.868 106.297 137.741 107.481 136.328 108.321C134.915 109.162 133.368 109.582 131.688 109.582H97.5417L92.5 118.748H147.5V127.915H92.5C89.0625 127.915 86.4653 126.406 84.7083 123.389C82.9514 120.372 82.875 117.373 84.4792 114.394L90.6667 103.165L74.1667 68.3317H65V59.165H79.8958L84.25 68.3317Z" fill="#FAFAFA"/>
</g>
<defs>
<clipPath id="clip0_2099_3543">
<rect width="110" height="110" fill="white" transform="translate(65 50)"/>
</clipPath>
</defs>
</svg>
