<svg width="240" height="240" viewBox="0 0 240 240" fill="none" xmlns="http://www.w3.org/2000/svg">
<path fill-rule="evenodd" clip-rule="evenodd" d="M115 10C138.846 10 158.979 18.2935 175.388 34.8932C191.797 51.494 199.999 72.8244 200 98.8594C199.999 115.819 193.039 135.241 179.11 157.096C167.44 175.405 150.545 195.426 128.436 217.169C120.969 224.513 109.031 224.513 101.564 217.169C79.455 195.426 62.5597 175.405 50.8903 157.096C36.9608 135.241 30.0008 115.819 30 98.8594C30.0012 72.8243 38.2033 51.494 54.6118 34.8932C71.0209 18.2935 91.1544 10 115 10Z" fill="#FB0060" stroke="#FAFAFA" stroke-width="10"/>
<path d="M104.653 118.191V160.835H115.347V134.099C121.051 134.099 126.51 133.029 131.723 130.891C136.937 128.752 141.549 125.677 145.559 121.667C149.569 117.656 152.666 113.022 154.85 107.764C157.033 102.506 158.125 97.0248 158.125 91.3211V80.6266H147.431C141.727 80.6266 136.246 81.7184 130.988 83.9018C125.73 86.0853 121.095 89.1822 117.085 93.1926C116.461 93.8164 115.882 94.418 115.347 94.9973C114.813 95.5766 114.322 96.1781 113.877 96.802C112.896 93.0589 111.493 89.5387 109.666 86.2412C107.839 82.9438 105.544 79.9137 102.781 77.1509C98.7708 73.1405 94.1366 70.0436 88.8785 67.8601C83.6204 65.6767 78.184 64.585 72.5694 64.585H61.875V75.2794C61.875 80.9831 62.9444 86.464 65.0833 91.7221C67.2222 96.9802 70.2969 101.614 74.3073 105.625C78.3177 109.635 82.952 112.732 88.2101 114.916C93.4682 117.099 98.9491 118.191 104.653 118.191Z" fill="#FAFAFA"/>
</svg>
