<svg width="240" height="240" viewBox="0 0 240 240" fill="none" xmlns="http://www.w3.org/2000/svg">
<path fill-rule="evenodd" clip-rule="evenodd" d="M115 10C138.846 10 158.979 18.2935 175.388 34.8932C191.797 51.494 199.999 72.8244 200 98.8594C199.999 115.819 193.039 135.241 179.11 157.096C167.44 175.405 150.545 195.426 128.436 217.169C120.969 224.513 109.031 224.513 101.564 217.169C79.455 195.426 62.5597 175.405 50.8903 157.096C36.9608 135.241 30.0008 115.819 30 98.8594C30.0012 72.8243 38.2033 51.494 54.6118 34.8932C71.0209 18.2935 91.1544 10 115 10Z" fill="#FB0060" stroke="#FAFAFA" stroke-width="10"/>
<path d="M82.9167 145.417C80.3958 145.417 78.2378 144.52 76.4427 142.725C74.6476 140.93 73.75 138.772 73.75 136.251V81.2508C73.75 78.73 74.6476 76.572 76.4427 74.7769C78.2378 72.9817 80.3958 72.0841 82.9167 72.0841H92.0833C92.0833 65.7439 94.3177 60.3394 98.7865 55.8706C103.255 51.4019 108.66 49.1675 115 49.1675C121.34 49.1675 126.745 51.4019 131.214 55.8706C135.682 60.3394 137.917 65.7439 137.917 72.0841H147.083C149.604 72.0841 151.762 72.9817 153.557 74.7769C155.352 76.572 156.25 78.73 156.25 81.2508V136.251C156.25 138.772 155.352 140.93 153.557 142.725C151.762 144.52 149.604 145.417 147.083 145.417H82.9167ZM101.25 72.0841H128.75C128.75 68.2647 127.413 65.0182 124.74 62.3446C122.066 59.671 118.819 58.3341 115 58.3341C111.181 58.3341 107.934 59.671 105.26 62.3446C102.587 65.0182 101.25 68.2647 101.25 72.0841Z" fill="#FAFAFA"/>
</svg>
