<svg width="240" height="240" viewBox="0 0 240 240" fill="none" xmlns="http://www.w3.org/2000/svg">
<path fill-rule="evenodd" clip-rule="evenodd" d="M115 10C138.846 10 158.979 18.2935 175.388 34.8932C191.797 51.494 199.999 72.8244 200 98.8594C199.999 115.819 193.039 135.241 179.11 157.096C167.44 175.405 150.545 195.426 128.436 217.169C120.969 224.513 109.031 224.513 101.564 217.169C79.455 195.426 62.5597 175.405 50.8903 157.096C36.9608 135.241 30.0008 115.819 30 98.8594C30.0012 72.8243 38.2033 51.494 54.6118 34.8932C71.0209 18.2935 91.1544 10 115 10Z" fill="#FB0060" stroke="#FAFAFA" stroke-width="10"/>
<path d="M92.5033 145.417L105.337 80.7917L97.0866 84V99.5833H87.9199V78.0417L111.066 68.1875C112.135 67.7292 113.262 67.4618 114.446 67.3854C115.63 67.309 116.757 67.4618 117.826 67.8438C118.896 68.2257 119.908 68.7604 120.863 69.4479C121.817 70.1354 122.6 71.0139 123.212 72.0833L127.795 79.4167C129.781 82.625 132.474 85.2604 135.873 87.3229C139.272 89.3854 143.149 90.4167 147.503 90.4167V99.5833C142.156 99.5833 137.382 98.4757 133.18 96.2604C128.979 94.0451 125.389 91.2188 122.41 87.7812L119.545 101.875L129.17 111.042V145.417H120.003V115.625L110.378 108.292L102.128 145.417H92.5033ZM122.295 65.2083C119.774 65.2083 117.616 64.3108 115.821 62.5156C114.026 60.7205 113.128 58.5625 113.128 56.0417C113.128 53.5208 114.026 51.3628 115.821 49.5677C117.616 47.7726 119.774 46.875 122.295 46.875C124.816 46.875 126.974 47.7726 128.769 49.5677C130.564 51.3628 131.462 53.5208 131.462 56.0417C131.462 58.5625 130.564 60.7205 128.769 62.5156C126.974 64.3108 124.816 65.2083 122.295 65.2083Z" fill="#FAFAFA"/>
</svg>
