<svg width="58" height="28" viewBox="0 0 58 28" fill="none" xmlns="http://www.w3.org/2000/svg">
<path d="M34.6581 5.23663C34.6581 5.65005 34.348 5.92566 33.969 5.92566H31.2818C30.9029 5.92566 30.5928 5.65005 30.5928 5.23663V4.06528C30.5928 3.68631 30.9029 3.4107 31.2818 3.4107H33.969C34.348 3.4107 34.6581 3.68631 34.6581 4.06528V5.23663ZM34.6581 18.087C34.6581 18.4316 34.348 18.7072 33.969 18.7072H31.2818C30.9029 18.7072 30.5928 18.4316 30.5928 18.087V8.92294C30.5928 8.57843 30.9029 8.26836 31.2818 8.26836H33.969C34.348 8.26836 34.6581 8.57843 34.6581 8.92294V18.087ZM26.7343 0V17.9492C26.7343 18.3627 26.3553 18.5349 25.9763 18.5349H23.3236C22.9791 18.5349 22.669 18.3627 22.669 17.9492V0H9.30187V6.09792H15.5376C17.4668 6.09792 18.6037 7.16592 18.6037 9.06075V15.5721C18.6037 17.5014 17.4668 18.5349 15.5376 18.5349H6.27015C5.71893 18.5349 5.23661 18.1904 5.23661 17.6392V0H0V24.1161H38.5166V6.99366C38.5166 6.47689 38.8611 6.09792 39.4124 6.09792H48.7487C50.678 6.09792 51.8838 7.16592 51.8838 9.06075V15.5721C51.8838 17.5014 50.678 18.5349 48.7487 18.5349H42.5819V27.4579H46.4404V24.1161H57.1204V0H26.7343ZM47.8185 9.47417H42.5819V15.1931H47.8185V9.47417ZM14.5385 9.47417H9.30187V15.1931H14.5385V9.47417Z" fill="#FF0C68"/>
</svg>
